<?xml version="1.0" encoding="UTF-8"?>
<svg id="Layer_2" xmlns="http://www.w3.org/2000/svg" viewBox="0 0 476.92 48.34">
  <defs>
    <style>
      .cls-1 {
        fill: #26266b;
      }
    </style>
  </defs>
  <g id="Capa_1">
    <g>
      <path class="cls-1" d="M2.7,35.15c-1.8-1.93-2.7-4.47-2.7-7.62V1.82c0-.17.06-.32.18-.44.12-.12.27-.18.45-.18h4.82c.17,0,.32.06.45.18.12.12.18.27.18.44v26.33c0,1.39.35,2.52,1.05,3.38.7.87,1.62,1.3,2.78,1.3s2.08-.43,2.78-1.3c.7-.87,1.05-1.99,1.05-3.38V1.82c0-.17.06-.32.18-.44.12-.12.27-.18.45-.18h4.82c.17,0,.32.06.45.18.12.12.18.27.18.44v25.71c0,3.16-.91,5.7-2.72,7.62-1.82,1.93-4.21,2.89-7.18,2.89s-5.41-.96-7.2-2.89Z"/>
      <path class="cls-1" d="M41.47,12.88c1.17,1.51,1.75,3.65,1.75,6.43v17.69c0,.17-.06.32-.18.44-.12.12-.27.18-.45.18h-4.82c-.18,0-.32-.06-.45-.18-.12-.12-.18-.27-.18-.44v-17.22c0-1.25-.26-2.22-.79-2.91-.52-.69-1.28-1.04-2.25-1.04s-1.8.36-2.36,1.09c-.56.73-.84,1.74-.84,3.02v17.07c0,.17-.06.32-.18.44-.12.12-.27.18-.45.18h-4.82c-.17,0-.32-.06-.45-.18-.12-.12-.18-.27-.18-.44V11.66c0-.17.06-.32.18-.44.12-.12.27-.18.45-.18h4.82c.17,0,.32.06.45.18.12.12.18.27.18.44v1.04c0,.1.04.17.13.18.09.02.18-.04.29-.18,1.19-1.39,2.85-2.08,4.98-2.08,2.27,0,3.99.75,5.16,2.26Z"/>
      <path class="cls-1" d="M48.36,6.35c-.7-.69-1.05-1.58-1.05-2.65s.35-1.96,1.05-2.65c.7-.69,1.59-1.04,2.67-1.04s1.96.35,2.65,1.04c.68.69,1.02,1.58,1.02,2.65s-.35,1.96-1.05,2.65c-.7.69-1.57,1.04-2.62,1.04s-1.97-.35-2.67-1.04ZM48.23,37.44c-.12-.12-.18-.27-.18-.44V11.66c0-.17.06-.32.18-.44.12-.12.27-.18.45-.18h4.82c.17,0,.32.06.45.18.12.12.18.27.18.44v25.34c0,.17-.06.32-.18.44-.12.12-.27.18-.45.18h-4.82c-.18,0-.32-.06-.45-.18Z"/>
      <path class="cls-1" d="M71.28,1.38c.12-.12.27-.18.45-.18h4.82c.17,0,.32.06.45.18.12.12.18.27.18.44v35.18c0,.17-.06.32-.18.44-.12.12-.27.18-.45.18h-4.82c-.18,0-.32-.06-.45-.18-.12-.12-.18-.27-.18-.44v-.62c0-.1-.04-.17-.1-.21-.07-.03-.14-.02-.21.05-1.26,1.21-2.83,1.82-4.72,1.82-2.34,0-4.16-.76-5.45-2.29-1.29-1.53-1.94-3.57-1.94-6.14v-10.56c0-2.64.66-4.7,1.96-6.19,1.31-1.49,3.12-2.24,5.42-2.24.8,0,1.62.15,2.46.44.84.29,1.59.77,2.25,1.43.07.07.14.09.21.05.07-.03.1-.1.1-.21V1.82c0-.17.06-.32.18-.44ZM70.05,32.03c.56-.54.91-1.26,1.05-2.16v-11.08c-.14-.9-.49-1.62-1.05-2.16-.56-.54-1.26-.81-2.1-.81-.98,0-1.76.34-2.36,1.01-.59.68-.89,1.57-.89,2.68v9.63c0,1.11.3,2,.89,2.68.59.68,1.38,1.02,2.36,1.02.84,0,1.54-.27,2.1-.81Z"/>
      <path class="cls-1" d="M97.82,13.01c1.71,1.6,2.57,3.69,2.57,6.3v17.69c0,.17-.06.32-.18.44-.12.12-.27.18-.45.18h-4.82c-.18,0-.32-.06-.45-.18-.12-.12-.18-.27-.18-.44v-.99c0-.1-.04-.17-.1-.21-.07-.03-.14,0-.21.1-1.22,1.42-3,2.13-5.34,2.13-1.99,0-3.75-.56-5.27-1.69-1.52-1.13-2.28-3.18-2.28-6.17s.92-5.34,2.75-6.66c1.83-1.32,4.32-1.98,7.47-1.98h2.72c.17,0,.26-.09.26-.26v-1.35c0-1.25-.31-2.25-.94-2.99-.63-.75-1.41-1.12-2.36-1.12-.73,0-1.34.23-1.83.7-.49.47-.79,1.1-.89,1.9-.04.42-.26.62-.68.62h-5.08c-.42,0-.61-.21-.58-.62.17-2.36,1.11-4.25,2.8-5.67,1.69-1.42,3.82-2.13,6.37-2.13,2.76,0,4.99.8,6.71,2.39ZM93.1,32.05c.8-.66,1.21-1.58,1.21-2.76v-2.97c0-.17-.09-.26-.26-.26h-2.72c-1.19,0-2.15.32-2.88.96-.73.64-1.1,1.57-1.1,2.78,0,1.08.28,1.88.84,2.42.56.54,1.27.81,2.15.81,1.05,0,1.97-.33,2.78-.99Z"/>
      <path class="cls-1" d="M116.91,1.38c.12-.12.27-.18.45-.18h4.82c.17,0,.32.06.45.18.12.12.18.27.18.44v35.18c0,.17-.06.32-.18.44-.12.12-.27.18-.45.18h-4.82c-.18,0-.32-.06-.45-.18-.12-.12-.18-.27-.18-.44v-.62c0-.1-.04-.17-.1-.21-.07-.03-.14-.02-.21.05-1.26,1.21-2.83,1.82-4.72,1.82-2.34,0-4.16-.76-5.45-2.29-1.29-1.53-1.94-3.57-1.94-6.14v-10.56c0-2.64.66-4.7,1.96-6.19,1.31-1.49,3.12-2.24,5.42-2.24.8,0,1.62.15,2.46.44.84.29,1.59.77,2.25,1.43.07.07.14.09.21.05.07-.03.1-.1.1-.21V1.82c0-.17.06-.32.18-.44ZM115.68,32.03c.56-.54.91-1.26,1.05-2.16v-11.08c-.14-.9-.49-1.62-1.05-2.16-.56-.54-1.26-.81-2.1-.81-.98,0-1.76.34-2.36,1.01-.59.68-.89,1.57-.89,2.68v9.63c0,1.11.3,2,.89,2.68.59.68,1.38,1.02,2.36,1.02.84,0,1.54-.27,2.1-.81Z"/>
      <path class="cls-1" d="M150.29,1.38c.12-.12.27-.18.45-.18h4.82c.17,0,.32.06.45.18.12.12.18.27.18.44v35.18c0,.17-.06.32-.18.44-.12.12-.27.18-.45.18h-4.82c-.18,0-.32-.06-.45-.18-.12-.12-.18-.27-.18-.44v-.62c0-.1-.04-.17-.1-.21-.07-.03-.14-.02-.21.05-1.26,1.21-2.83,1.82-4.72,1.82-2.34,0-4.16-.76-5.45-2.29-1.29-1.53-1.94-3.57-1.94-6.14v-10.56c0-2.64.66-4.7,1.96-6.19,1.31-1.49,3.12-2.24,5.42-2.24.8,0,1.62.15,2.46.44.84.29,1.59.77,2.25,1.43.07.07.14.09.21.05.07-.03.1-.1.1-.21V1.82c0-.17.06-.32.18-.44ZM149.06,32.03c.56-.54.91-1.26,1.05-2.16v-11.08c-.14-.9-.49-1.62-1.05-2.16-.56-.54-1.26-.81-2.1-.81-.98,0-1.76.34-2.36,1.01-.59.68-.89,1.57-.89,2.68v9.63c0,1.11.3,2,.89,2.68.59.68,1.38,1.02,2.36,1.02.84,0,1.54-.27,2.1-.81Z"/>
      <path class="cls-1" d="M178.94,26.36c-.12.12-.27.18-.45.18h-11.58c-.18,0-.26.09-.26.26v2.34c0,1.08.3,1.96.89,2.65.59.69,1.36,1.04,2.31,1.04.8,0,1.49-.25,2.07-.75.58-.5.95-1.15,1.13-1.95.1-.35.33-.52.68-.52l4.66.21c.17,0,.32.06.45.18.12.12.17.29.13.49-.25,2.43-1.14,4.29-2.67,5.59-1.54,1.3-3.69,1.95-6.44,1.95s-5.13-.75-6.78-2.26c-1.66-1.51-2.49-3.56-2.49-6.17v-10.56c0-2.53.83-4.57,2.49-6.11,1.66-1.54,3.92-2.32,6.78-2.32s5.13.77,6.79,2.32c1.66,1.54,2.49,3.58,2.49,6.11v6.87c0,.17-.06.32-.18.44ZM167.55,16.86c-.59.69-.89,1.58-.89,2.65v2.34c0,.17.09.26.26.26h5.92c.17,0,.26-.09.26-.26v-2.34c0-1.11-.3-2-.89-2.68-.59-.68-1.38-1.01-2.36-1.01s-1.71.35-2.31,1.04Z"/>
      <path class="cls-1" d="M183.29,37.44c-.12-.12-.18-.27-.18-.44V1.82c0-.17.06-.32.18-.44.12-.12.27-.18.45-.18h4.82c.17,0,.32.06.45.18.12.12.18.27.18.44v35.18c0,.17-.06.32-.18.44-.12.12-.27.18-.45.18h-4.82c-.18,0-.32-.06-.45-.18Z"/>
      <path class="cls-1" d="M218.47,37.1l-4.45-14.93c-.07-.14-.16-.21-.26-.21h-2.78c-.17,0-.26.09-.26.26v14.78c0,.17-.06.32-.18.44-.12.12-.27.18-.45.18h-4.82c-.18,0-.32-.06-.45-.18-.12-.12-.18-.27-.18-.44V1.82c0-.17.06-.32.18-.44.12-.12.27-.18.45-.18h9.85c1.85,0,3.48.44,4.9,1.33,1.41.88,2.51,2.13,3.3,3.75.79,1.61,1.18,3.46,1.18,5.54s-.42,4.01-1.26,5.57c-.84,1.56-2.01,2.74-3.51,3.54-.14.04-.19.14-.16.31l5.13,15.66c.03.07.05.16.05.26,0,.31-.19.47-.58.47h-5.03c-.35,0-.58-.17-.68-.52ZM210.72,6.66v10.35c0,.17.09.26.26.26h3.2c1.26,0,2.28-.49,3.06-1.46.79-.97,1.18-2.29,1.18-3.95s-.39-2.99-1.18-3.98c-.79-.99-1.81-1.48-3.06-1.48h-3.2c-.17,0-.26.09-.26.26Z"/>
      <path class="cls-1" d="M246.32,26.36c-.12.12-.27.18-.45.18h-11.58c-.17,0-.26.09-.26.26v2.34c0,1.08.3,1.96.89,2.65.59.69,1.36,1.04,2.3,1.04.8,0,1.49-.25,2.07-.75.58-.5.95-1.15,1.13-1.95.1-.35.33-.52.68-.52l4.66.21c.17,0,.32.06.45.18.12.12.16.29.13.49-.25,2.43-1.14,4.29-2.67,5.59-1.54,1.3-3.68,1.95-6.44,1.95s-5.13-.75-6.78-2.26c-1.66-1.51-2.49-3.56-2.49-6.17v-10.56c0-2.53.83-4.57,2.49-6.11,1.66-1.54,3.92-2.32,6.78-2.32s5.13.77,6.79,2.32c1.66,1.54,2.49,3.58,2.49,6.11v6.87c0,.17-.06.32-.18.44ZM234.93,16.86c-.59.69-.89,1.58-.89,2.65v2.34c0,.17.09.26.26.26h5.92c.17,0,.26-.09.26-.26v-2.34c0-1.11-.3-2-.89-2.68-.59-.68-1.38-1.01-2.36-1.01s-1.71.35-2.3,1.04Z"/>
      <path class="cls-1" d="M262.88,11.21c.12-.12.27-.18.45-.18h4.82c.17,0,.32.06.45.18.12.12.18.27.18.44v24.98c0,3.75-.86,6.63-2.57,8.66-1.71,2.03-4.77,3.04-9.17,3.04-.77,0-1.35-.02-1.73-.05-.42-.03-.63-.26-.63-.68v-4.01c0-.45.23-.64.68-.57,1.99.03,3.52-.21,4.58-.73,1.07-.52,1.79-1.28,2.17-2.29.38-1.01.58-2.32.58-3.96v-.57c0-.1-.04-.16-.11-.18s-.14.03-.21.13c-1.15,1.49-2.79,2.24-4.92,2.24-2.34,0-4.12-.75-5.34-2.26-1.22-1.51-1.83-3.56-1.83-6.17v-10.2c0-2.67.62-4.74,1.86-6.22,1.24-1.47,3.01-2.21,5.32-2.21,2.13,0,3.77.75,4.92,2.24.07.1.14.15.21.13.07-.02.11-.08.11-.18v-1.14c0-.17.06-.32.18-.44ZM261.83,31.46c.58-.68.86-1.55.86-2.63v-9.31c0-1.11-.29-2-.86-2.68-.58-.68-1.34-1.01-2.28-1.01s-1.71.35-2.31,1.04c-.59.69-.89,1.58-.89,2.65v9.31c0,1.08.3,1.95.89,2.63.59.68,1.36,1.02,2.31,1.02s1.7-.34,2.28-1.02Z"/>
      <path class="cls-1" d="M274.01,6.35c-.7-.69-1.05-1.58-1.05-2.65s.35-1.96,1.05-2.65c.7-.69,1.59-1.04,2.67-1.04s1.96.35,2.65,1.04c.68.69,1.02,1.58,1.02,2.65s-.35,1.96-1.05,2.65c-.7.69-1.57,1.04-2.62,1.04s-1.97-.35-2.67-1.04ZM273.88,37.44c-.12-.12-.18-.27-.18-.44V11.66c0-.17.06-.32.18-.44.12-.12.27-.18.45-.18h4.82c.17,0,.32.06.45.18.12.12.18.27.18.44v25.34c0,.17-.06.32-.18.44-.12.12-.27.18-.45.18h-4.82c-.17,0-.32-.06-.45-.18Z"/>
      <path class="cls-1" d="M286.37,35.96c-1.64-1.32-2.46-3.1-2.46-5.36v-.36c0-.17.06-.32.18-.44.12-.12.27-.18.45-.18h4.51c.17,0,.32.06.45.18.12.12.18.27.18.44v.26c0,.83.32,1.53.97,2.08.65.56,1.44.83,2.38.83s1.62-.26,2.15-.78c.52-.52.79-1.18.79-1.98,0-.69-.23-1.27-.68-1.74-.46-.47-.94-.82-1.47-1.07-.52-.24-1.47-.64-2.83-1.2-1.99-.76-3.62-1.73-4.9-2.91-1.28-1.18-1.91-2.93-1.91-5.26s.78-4.33,2.33-5.7c1.55-1.37,3.66-2.06,6.31-2.06s4.88.72,6.47,2.16c1.59,1.44,2.38,3.37,2.38,5.8,0,.17-.06.32-.18.44-.12.12-.27.18-.45.18h-4.4c-.17,0-.32-.06-.45-.18-.12-.12-.18-.27-.18-.44v-.31c0-.83-.29-1.53-.87-2.08-.58-.55-1.3-.83-2.17-.83s-1.63.29-2.17.86c-.54.57-.81,1.26-.81,2.06,0,.66.21,1.21.63,1.67.42.45.89.81,1.41,1.07.52.26,1.4.65,2.62,1.17,1.47.59,2.7,1.17,3.69,1.74s1.87,1.39,2.62,2.45c.75,1.06,1.13,2.37,1.13,3.93,0,2.32-.82,4.16-2.46,5.52-1.64,1.35-3.86,2.03-6.65,2.03s-4.96-.66-6.6-1.98Z"/>
      <path class="cls-1" d="M316.63,15.12c-.12.12-.27.18-.45.18h-3.25c-.17,0-.26.09-.26.26v13.63c0,1.21.23,2.06.68,2.52s1.13.69,2.04.65h.37c.17,0,.32.06.45.18.12.12.18.27.18.44v4.01c0,.17-.06.32-.18.44-.12.12-.27.18-.45.18h-1.78c-2.38,0-4.17-.43-5.37-1.3s-1.81-2.5-1.81-4.89v-15.87c0-.17-.09-.26-.26-.26h-1.83c-.18,0-.32-.06-.45-.18-.12-.12-.18-.27-.18-.44v-3.02c0-.17.06-.32.18-.44.12-.12.27-.18.45-.18h1.83c.17,0,.26-.09.26-.26v-5.72c0-.17.06-.32.18-.44.12-.12.27-.18.45-.18h4.61c.17,0,.32.06.45.18.12.12.18.27.18.44v5.72c0,.17.09.26.26.26h3.25c.17,0,.32.06.45.18.12.12.18.27.18.44v3.02c0,.17-.06.32-.18.44Z"/>
      <path class="cls-1" d="M333.53,11.24c.28.17.38.43.31.78l-.84,4.84c-.04.42-.28.54-.73.36-.49-.14-.94-.21-1.36-.21s-.8.05-1.15.16c-.98.14-1.77.69-2.38,1.64-.61.95-.92,2.09-.92,3.41v14.73c0,.17-.06.32-.18.44-.12.12-.27.18-.45.18h-4.82c-.18,0-.32-.06-.45-.18-.12-.12-.18-.27-.18-.44V11.66c0-.17.06-.32.18-.44.12-.12.27-.18.45-.18h4.82c.17,0,.32.06.45.18.12.12.18.27.18.44v2.39c0,.14.04.22.11.23.07.02.12-.04.16-.18.94-2.25,2.48-3.38,4.61-3.38.94,0,1.68.17,2.2.52Z"/>
      <path class="cls-1" d="M338.53,35.75c-1.66-1.53-2.49-3.59-2.49-6.19v-10.46c0-2.57.84-4.62,2.51-6.17,1.68-1.54,3.95-2.32,6.81-2.32s5.19.77,6.86,2.32c1.68,1.54,2.51,3.6,2.51,6.17v10.46c0,2.6-.83,4.67-2.49,6.19s-3.96,2.29-6.89,2.29-5.18-.76-6.84-2.29ZM347.75,31.77c.61-.68.92-1.57.92-2.68v-9.57c0-1.08-.31-1.96-.92-2.65-.61-.69-1.41-1.04-2.38-1.04s-1.76.34-2.36,1.01c-.59.68-.89,1.57-.89,2.68v9.57c0,1.11.3,2,.89,2.68.59.68,1.38,1.01,2.36,1.01s1.77-.34,2.38-1.01Z"/>
      <path class="cls-1" d="M371.62,35.44c-1.78-1.73-2.67-4.01-2.67-6.82v-1.35c0-.17.06-.32.18-.44.12-.12.27-.18.45-.18h4.77c.17,0,.32.06.45.18.12.12.18.27.18.44v1.04c0,1.35.34,2.45,1.02,3.28s1.56,1.25,2.65,1.25,1.97-.39,2.67-1.17c.7-.78,1.05-1.81,1.05-3.1,0-.9-.19-1.68-.58-2.34-.38-.66-.93-1.28-1.62-1.87-.7-.59-1.82-1.44-3.35-2.55-1.75-1.25-3.15-2.36-4.22-3.33-1.07-.97-1.96-2.14-2.67-3.51-.72-1.37-1.07-2.96-1.07-4.76,0-2.88.87-5.17,2.62-6.87,1.75-1.7,4.05-2.55,6.92-2.55s5.24.89,7.02,2.68c1.78,1.79,2.67,4.15,2.67,7.1v1.25c0,.17-.06.32-.18.44-.12.12-.27.18-.45.18h-4.72c-.17,0-.32-.06-.45-.18-.12-.12-.18-.27-.18-.44v-1.35c0-1.35-.34-2.44-1.02-3.25-.68-.81-1.58-1.22-2.7-1.22-1.05,0-1.9.37-2.57,1.12-.66.75-1,1.78-1,3.1,0,1.25.36,2.31,1.07,3.17.71.87,2.12,2.06,4.22,3.59,2.13,1.56,3.74,2.84,4.82,3.82,1.08.99,1.92,2.07,2.52,3.25.59,1.18.89,2.58.89,4.21,0,2.95-.89,5.32-2.67,7.1-1.78,1.79-4.12,2.68-7.02,2.68s-5.24-.87-7.02-2.6Z"/>
      <path class="cls-1" d="M394.38,35.75c-1.66-1.53-2.49-3.59-2.49-6.19v-10.46c0-2.57.84-4.62,2.51-6.17,1.68-1.54,3.95-2.32,6.81-2.32s5.19.77,6.86,2.32c1.68,1.54,2.51,3.6,2.51,6.17v10.46c0,2.6-.83,4.67-2.49,6.19s-3.96,2.29-6.89,2.29-5.18-.76-6.84-2.29ZM403.6,31.77c.61-.68.92-1.57.92-2.68v-9.57c0-1.08-.31-1.96-.92-2.65-.61-.69-1.41-1.04-2.38-1.04s-1.76.34-2.36,1.01c-.59.68-.89,1.57-.89,2.68v9.57c0,1.11.3,2,.89,2.68.59.68,1.38,1.01,2.36,1.01s1.77-.34,2.38-1.01Z"/>
      <path class="cls-1" d="M417.01,35.75c-1.66-1.53-2.49-3.59-2.49-6.19v-10.51c0-2.53.83-4.57,2.49-6.11,1.66-1.54,3.92-2.32,6.79-2.32s5.13.75,6.81,2.26,2.51,3.43,2.51,5.75v.73c0,.17-.06.32-.18.44-.12.12-.27.18-.45.18l-4.82.21c-.42,0-.63-.21-.63-.62v-.52c0-.87-.31-1.62-.92-2.26-.61-.64-1.39-.96-2.33-.96s-1.71.35-2.31,1.04c-.59.69-.89,1.58-.89,2.65v9.63c0,1.08.3,1.96.89,2.65.59.69,1.36,1.04,2.31,1.04s1.72-.32,2.33-.96c.61-.64.92-1.41.92-2.32v-.52c0-.17.06-.32.18-.44.12-.12.27-.18.45-.18l4.82.05c.17,0,.32.06.45.18.12.12.18.27.18.44v.94c0,2.39-.84,4.33-2.51,5.8s-3.95,2.21-6.81,2.21-5.13-.76-6.79-2.29Z"/>
      <path class="cls-1" d="M437.58,6.35c-.7-.69-1.05-1.58-1.05-2.65s.35-1.96,1.05-2.65c.7-.69,1.59-1.04,2.67-1.04s1.96.35,2.65,1.04c.68.69,1.02,1.58,1.02,2.65s-.35,1.96-1.05,2.65c-.7.69-1.57,1.04-2.62,1.04s-1.97-.35-2.67-1.04ZM437.45,37.44c-.12-.12-.18-.27-.18-.44V11.66c0-.17.06-.32.18-.44.12-.12.27-.18.45-.18h4.82c.17,0,.32.06.45.18.12.12.18.27.18.44v25.34c0,.17-.06.32-.18.44-.12.12-.27.18-.45.18h-4.82c-.17,0-.32-.06-.45-.18Z"/>
      <path class="cls-1" d="M464.14,13.01c1.71,1.6,2.57,3.69,2.57,6.3v17.69c0,.17-.06.32-.18.44-.12.12-.27.18-.45.18h-4.82c-.17,0-.32-.06-.45-.18-.12-.12-.18-.27-.18-.44v-.99c0-.1-.04-.17-.11-.21-.07-.03-.14,0-.21.1-1.22,1.42-3,2.13-5.34,2.13-1.99,0-3.75-.56-5.26-1.69-1.52-1.13-2.28-3.18-2.28-6.17s.92-5.34,2.75-6.66c1.83-1.32,4.32-1.98,7.47-1.98h2.72c.17,0,.26-.09.26-.26v-1.35c0-1.25-.31-2.25-.94-2.99-.63-.75-1.42-1.12-2.36-1.12-.73,0-1.35.23-1.83.7-.49.47-.79,1.1-.89,1.9-.04.42-.26.62-.68.62h-5.08c-.42,0-.61-.21-.58-.62.17-2.36,1.11-4.25,2.8-5.67,1.69-1.42,3.82-2.13,6.37-2.13,2.76,0,4.99.8,6.71,2.39ZM459.42,32.05c.8-.66,1.21-1.58,1.21-2.76v-2.97c0-.17-.09-.26-.26-.26h-2.72c-1.19,0-2.15.32-2.88.96-.73.64-1.1,1.57-1.1,2.78,0,1.08.28,1.88.84,2.42.56.54,1.27.81,2.15.81,1.05,0,1.97-.33,2.78-.99Z"/>
      <path class="cls-1" d="M471.03,37.44c-.12-.12-.18-.27-.18-.44V1.82c0-.17.06-.32.18-.44.12-.12.27-.18.45-.18h4.82c.17,0,.32.06.45.18.12.12.18.27.18.44v35.18c0,.17-.06.32-.18.44-.12.12-.27.18-.45.18h-4.82c-.17,0-.32-.06-.45-.18Z"/>
    </g>
  </g>
</svg>